<svg height="504pt" viewBox="0 -12 504 504" width="504pt" xmlns="http://www.w3.org/2000/svg"><path d="m303.769531 63.070312v-7.300781c0-28.589843-23.175781-51.769531-51.769531-51.769531s-51.769531 23.179688-51.769531 51.769531v7.300781h-7.300781c-28.589844 0-51.769532 23.175782-51.769532 51.769532s23.179688 51.769531 51.769532 51.769531h118.140624c28.589844 0 51.769532-23.175781 51.769532-51.769531s-23.179688-51.769532-51.769532-51.769532zm0 0" fill="#f4efed"/><path d="m232.214844 330.691406h-218.214844c-5.523438 0-10-4.476562-10-10v-52.539062c0-5.523438 4.476562-10 10-10h218.214844c3.179687 0 5.757812 2.578125 5.757812 5.753906v61.027344c0 3.179687-2.578125 5.757812-5.757812 5.757812zm0 0" fill="#f4efed"/><path d="m53.226562 293.269531c0 6.679688-5.410156 12.089844-12.089843 12.089844-6.675781 0-12.089844-5.410156-12.089844-12.089844 0-6.675781 5.414063-12.089843 12.089844-12.089843 6.679687 0 12.089843 5.414062 12.089843 12.089843zm0 0" fill="#ff4397"/><path d="m41.136719 309.359375c-8.871094 0-16.089844-7.21875-16.089844-16.089844 0-8.871093 7.21875-16.089843 16.089844-16.089843 8.875 0 16.089843 7.21875 16.089843 16.089843 0 8.871094-7.214843 16.089844-16.089843 16.089844zm0-24.179687c-4.457031 0-8.089844 3.628906-8.089844 8.089843 0 4.457031 3.628906 8.089844 8.089844 8.089844 4.464843 0 8.089843-3.628906 8.089843-8.089844 0-4.464843-3.625-8.089843-8.089843-8.089843zm0 0" fill="#690589"/><path d="m232.214844 403.230469h-218.214844c-5.523438 0-10-4.476563-10-10v-52.539063c0-5.519531 4.476562-10 10-10h218.214844c3.179687 0 5.757812 2.578125 5.757812 5.757813v61.027343c0 3.175782-2.578125 5.753907-5.757812 5.753907zm0 0" fill="#f4efed"/><path d="m232.214844 475.773438h-218.214844c-5.523438 0-10-4.480469-10-10v-52.542969c0-5.519531 4.476562-10 10-10h218.214844c3.179687 0 5.757812 2.578125 5.757812 5.757812v61.027344c0 3.179687-2.578125 5.757813-5.757812 5.757813zm0 0" fill="#f4efed"/><path d="m14 258.148438h15.757812c-3.183593 0-5.757812 2.578124-5.757812 5.757812v61.027344c0 3.179687 2.578125 5.757812 5.757812 5.757812h-15.757812c-5.523438 0-10-4.476562-10-10v-52.539062c0-5.523438 4.476562-10.003906 10-10.003906zm0 0" fill="#fff"/><path d="m14 330.691406h15.757812c-3.183593 0-5.757812 2.578125-5.757812 5.757813v61.027343c0 3.179688 2.578125 5.757813 5.757812 5.757813h-15.757812c-5.523438 0-10-4.476563-10-10v-52.539063c0-5.527343 4.476562-10.003906 10-10.003906zm0 0" fill="#fff"/><path d="m14 403.230469h15.757812c-3.183593 0-5.757812 2.578125-5.757812 5.757812v61.027344c0 3.179687 2.578125 5.757813 5.757812 5.757813h-15.757812c-5.523438 0-10-4.476563-10-10v-52.539063c0-5.527344 4.476562-10.003906 10-10.003906zm0 0" fill="#fff"/><g fill="#f4efed"><path d="m490 475.773438h-218.214844c-3.179687 0-5.757812-2.578126-5.757812-5.757813v-61.027344c0-3.179687 2.578125-5.757812 5.757812-5.757812h218.214844c5.523438 0 10 4.476562 10 10v52.539062c0 5.523438-4.476562 10.003907-10 10.003907zm0 0"/><path d="m490 403.230469h-218.214844c-3.179687 0-5.757812-2.578125-5.757812-5.753907v-61.027343c0-3.179688 2.578125-5.757813 5.757812-5.757813h218.214844c5.523438 0 10 4.480469 10 10v52.539063c0 5.523437-4.476562 10-10 10zm0 0"/><path d="m490 330.691406h-218.214844c-3.179687 0-5.757812-2.578125-5.757812-5.757812v-61.027344c0-3.179688 2.578125-5.753906 5.757812-5.753906h218.214844c5.523438 0 10 4.476562 10 10v52.539062c0 5.523438-4.476562 10-10 10zm0 0"/></g><path d="m252 252c-2.207031 0-4-1.792969-4-4v-81.390625c0-2.207031 1.792969-4 4-4s4 1.792969 4 4v81.390625c0 2.210938-1.792969 4-4 4zm0 0" fill="#690589"/><path d="m311.070312 63.070312h-7.300781v-7.300781c0-28.589843-23.175781-51.769531-51.769531-51.769531-2.375 0-4.710938.175781-7 .484375 25.277344 3.417969 44.769531 25.070313 44.769531 51.285156 0 4.03125 3.269531 7.300781 7.300781 7.300781 28.589844 0 51.769532 23.175782 51.769532 51.769532s-23.179688 51.769531-51.769532 51.769531h14c28.589844 0 51.769532-23.175781 51.769532-51.769531s-23.179688-51.769532-51.769532-51.769532zm0 0" fill="#d6d1cf"/><path d="m192.929688 63.070312h7.300781v-7.300781c0-28.589843 23.175781-51.769531 51.769531-51.769531 2.375 0 4.710938.175781 7 .484375-25.277344 3.417969-44.769531 25.070313-44.769531 51.285156 0 4.03125-3.269531 7.300781-7.300781 7.300781-28.589844 0-51.769532 23.175782-51.769532 51.769532s23.179688 51.769531 51.769532 51.769531h-14c-28.589844 0-51.769532-23.175781-51.769532-51.769531s23.179688-51.769532 51.769532-51.769532zm0 0" fill="#fff"/><path d="m311.070312 170.609375h-118.140624c-30.75 0-55.769532-25.015625-55.769532-55.769531 0-30.75 25.019532-55.769532 55.769532-55.769532h3.300781v-3.300781c0-30.75 25.015625-55.769531 55.769531-55.769531s55.769531 25.019531 55.769531 55.769531v3.300781h3.300781c30.75 0 55.769532 25.019532 55.769532 55.769532 0 30.753906-25.019532 55.769531-55.769532 55.769531zm-118.140624-103.539063c-26.339844 0-47.769532 21.429688-47.769532 47.769532s21.429688 47.769531 47.769532 47.769531h118.140624c26.339844 0 47.769532-21.429687 47.769532-47.769531s-21.429688-47.769532-47.769532-47.769532h-7.300781c-2.207031 0-4-1.792968-4-4v-7.300781c0-26.339843-21.429687-47.769531-47.769531-47.769531s-47.769531 21.429688-47.769531 47.769531v7.300781c0 2.207032-1.792969 4-4 4zm0 0" fill="#690589"/><path d="m162.175781 99.9375c-.90625 0-1.8125-.304688-2.5625-.929688-1.695312-1.414062-1.921875-3.9375-.503906-5.632812 6.875-8.226562 15.691406-14.796875 25.496094-18.996094 2.027343-.871094 4.378906.070313 5.25 2.101563.871093 2.03125-.070313 4.382812-2.101563 5.25-8.652344 3.710937-16.4375 9.507812-22.507812 16.773437-.789063.945313-1.925782 1.433594-3.070313 1.433594zm0 0" fill="#690589"/><path d="m423.769531 261.625c-2.207031 0-4-1.792969-4-4v-39.027344c0-8.820312-7.175781-16-16-16h-303.542969c-8.820312 0-16 7.179688-16 16v38.730469c0 2.210937-1.789062 4-4 4-2.207031 0-4-1.789063-4-4v-38.730469c0-13.234375 10.765626-24 24-24h303.542969c13.234375 0 24 10.765625 24 24v39.027344c0 2.207031-1.789062 4-4 4zm0 0" fill="#690589"/><path d="m200.835938 305.359375h-107.316407c-6.675781 0-12.089843-5.410156-12.089843-12.089844 0-6.675781 5.414062-12.089843 12.089843-12.089843h107.316407c6.679687 0 12.089843 5.414062 12.089843 12.089843s-5.414062 12.089844-12.089843 12.089844zm0 0" fill="#7bac51"/><path d="m232.214844 334.691406h-218.214844c-7.71875 0-14-6.28125-14-14v-52.542968c0-7.71875 6.28125-14 14-14h218.214844c5.382812 0 9.757812 4.378906 9.757812 9.757812v61.027344c0 5.378906-4.375 9.757812-9.757812 9.757812zm-218.214844-72.542968c-3.308594 0-6 2.695312-6 6v52.542968c0 3.308594 2.691406 6 6 6h218.214844c.972656 0 1.757812-.789062 1.757812-1.757812v-61.027344c0-.96875-.785156-1.757812-1.757812-1.757812zm0 0" fill="#690589"/><path d="m200.835938 309.359375h-107.316407c-8.871093 0-16.089843-7.21875-16.089843-16.089844 0-8.871093 7.21875-16.089843 16.089843-16.089843h107.316407c8.871093 0 16.089843 7.21875 16.089843 16.089843 0 8.871094-7.21875 16.089844-16.089843 16.089844zm-107.316407-24.179687c-4.460937 0-8.089843 3.628906-8.089843 8.089843 0 4.457031 3.628906 8.089844 8.089843 8.089844h107.316407c4.460937 0 8.089843-3.628906 8.089843-8.089844 0-4.464843-3.628906-8.089843-8.089843-8.089843zm0 0" fill="#690589"/><path d="m200.835938 377.898438h-107.316407c-6.675781 0-12.089843-5.410157-12.089843-12.089844 0-6.675782 5.414062-12.089844 12.089843-12.089844h107.316407c6.679687 0 12.089843 5.414062 12.089843 12.089844 0 6.679687-5.414062 12.089844-12.089843 12.089844zm0 0" fill="#7bac51"/><path d="m232.214844 407.230469h-218.214844c-7.71875 0-14-6.277344-14-14v-52.539063c0-7.71875 6.28125-14 14-14h218.214844c5.382812 0 9.757812 4.375 9.757812 9.757813v61.023437c0 5.382813-4.375 9.757813-9.757812 9.757813zm-218.214844-72.539063c-3.308594 0-6 2.691406-6 6v52.539063c0 3.308593 2.691406 6 6 6h218.214844c.972656 0 1.757812-.785157 1.757812-1.753907v-61.027343c0-.96875-.785156-1.753907-1.757812-1.753907h-218.214844zm0 0" fill="#690589"/><path d="m200.835938 381.898438h-107.316407c-8.871093 0-16.089843-7.214844-16.089843-16.089844 0-8.871094 7.21875-16.089844 16.089843-16.089844h107.316407c8.871093 0 16.089843 7.21875 16.089843 16.089844 0 8.875-7.21875 16.089844-16.089843 16.089844zm-107.316407-24.179688c-4.460937 0-8.089843 3.628906-8.089843 8.089844 0 4.464844 3.628906 8.089844 8.089843 8.089844h107.316407c4.460937 0 8.089843-3.625 8.089843-8.089844 0-4.460938-3.628906-8.089844-8.089843-8.089844zm0 0" fill="#690589"/><path d="m53.226562 365.808594c0 6.679687-5.410156 12.089844-12.089843 12.089844-6.675781 0-12.089844-5.410157-12.089844-12.089844 0-6.675782 5.414063-12.089844 12.089844-12.089844 6.679687 0 12.089843 5.414062 12.089843 12.089844zm0 0" fill="#ff4397"/><path d="m41.136719 381.898438c-8.871094 0-16.089844-7.214844-16.089844-16.089844 0-8.871094 7.21875-16.089844 16.089844-16.089844 8.875 0 16.089843 7.21875 16.089843 16.089844 0 8.875-7.214843 16.089844-16.089843 16.089844zm0-24.179688c-4.457031 0-8.089844 3.628906-8.089844 8.089844 0 4.464844 3.628906 8.089844 8.089844 8.089844 4.464843 0 8.089843-3.625 8.089843-8.089844 0-4.460938-3.625-8.089844-8.089843-8.089844zm0 0" fill="#690589"/><path d="m200.835938 450.441406h-107.316407c-6.675781 0-12.089843-5.414062-12.089843-12.089844 0-6.679687 5.414062-12.089843 12.089843-12.089843h107.316407c6.679687 0 12.089843 5.410156 12.089843 12.089843 0 6.675782-5.414062 12.089844-12.089843 12.089844zm0 0" fill="#7bac51"/><path d="m232.214844 479.773438h-218.214844c-7.71875 0-14-6.28125-14-14v-52.542969c0-7.71875 6.28125-14 14-14h218.214844c5.382812 0 9.757812 4.378906 9.757812 9.757812v61.027344c0 5.378906-4.375 9.757813-9.757812 9.757813zm-218.214844-72.542969c-3.308594 0-6 2.695312-6 6v52.542969c0 3.304687 2.691406 6 6 6h218.214844c.972656 0 1.757812-.789063 1.757812-1.757813v-61.027344c0-.964843-.785156-1.753906-1.757812-1.753906h-218.214844zm0 0" fill="#690589"/><path d="m200.835938 454.441406h-107.316407c-8.871093 0-16.089843-7.21875-16.089843-16.089844 0-8.875 7.21875-16.089843 16.089843-16.089843h107.316407c8.871093 0 16.089843 7.214843 16.089843 16.089843 0 8.871094-7.21875 16.089844-16.089843 16.089844zm-107.316407-24.179687c-4.460937 0-8.089843 3.628906-8.089843 8.089843 0 4.457032 3.628906 8.089844 8.089843 8.089844h107.316407c4.460937 0 8.089843-3.628906 8.089843-8.089844 0-4.464843-3.628906-8.089843-8.089843-8.089843zm0 0" fill="#690589"/><path d="m53.226562 438.351562c0 6.675782-5.410156 12.089844-12.089843 12.089844-6.675781 0-12.089844-5.414062-12.089844-12.089844 0-6.679687 5.414063-12.089843 12.089844-12.089843 6.679687 0 12.089843 5.414062 12.089843 12.089843zm0 0" fill="#ff4397"/><path d="m41.136719 454.441406c-8.871094 0-16.089844-7.21875-16.089844-16.089844 0-8.875 7.21875-16.089843 16.089844-16.089843 8.875 0 16.089843 7.214843 16.089843 16.089843 0 8.871094-7.214843 16.089844-16.089843 16.089844zm0-24.179687c-4.457031 0-8.089844 3.628906-8.089844 8.089843 0 4.457032 3.628906 8.089844 8.089844 8.089844 4.464843 0 8.089843-3.628906 8.089843-8.089844 0-4.464843-3.625-8.089843-8.089843-8.089843zm0 0" fill="#690589"/><path d="m490 258.148438h-15.757812c3.179687 0 5.757812 2.578124 5.757812 5.757812v61.027344c0 3.179687-2.578125 5.757812-5.757812 5.757812h15.757812c5.523438 0 10-4.476562 10-10v-52.539062c0-5.523438-4.476562-10.003906-10-10.003906zm0 0" fill="#d6d1cf"/><path d="m490 330.691406h-15.757812c3.179687 0 5.757812 2.578125 5.757812 5.757813v61.027343c0 3.179688-2.578125 5.757813-5.757812 5.757813h15.757812c5.523438 0 10-4.476563 10-10v-52.539063c0-5.527343-4.476562-10.003906-10-10.003906zm0 0" fill="#d6d1cf"/><path d="m490 403.230469h-15.757812c3.179687 0 5.757812 2.578125 5.757812 5.757812v61.027344c0 3.179687-2.578125 5.757813-5.757812 5.757813h15.757812c5.523438 0 10-4.476563 10-10v-52.539063c0-5.527344-4.476562-10.003906-10-10.003906zm0 0" fill="#d6d1cf"/><path d="m462.863281 305.359375h-107.316406c-6.679687 0-12.089844-5.410156-12.089844-12.089844 0-6.675781 5.410157-12.089843 12.089844-12.089843h107.316406c6.675781 0 12.089844 5.414062 12.089844 12.089843s-5.414063 12.089844-12.089844 12.089844zm0 0" fill="#7bac51"/><path d="m490 334.691406h-218.214844c-5.382812 0-9.757812-4.375-9.757812-9.757812v-61.027344c0-5.378906 4.375-9.757812 9.757812-9.757812h218.214844c7.71875 0 14 6.28125 14 14v52.542968c0 7.71875-6.28125 14-14 14zm-218.214844-72.542968c-.972656 0-1.757812.789062-1.757812 1.757812v61.027344c0 .96875.785156 1.757812 1.757812 1.757812h218.214844c3.308594 0 6-2.691406 6-6v-52.542968c0-3.304688-2.691406-6-6-6zm0 0" fill="#690589"/><path d="m462.863281 309.359375h-107.316406c-8.871094 0-16.089844-7.21875-16.089844-16.089844 0-8.871093 7.21875-16.089843 16.089844-16.089843h107.316406c8.871094 0 16.089844 7.21875 16.089844 16.089843 0 8.871094-7.21875 16.089844-16.089844 16.089844zm-107.316406-24.179687c-4.460937 0-8.089844 3.628906-8.089844 8.089843 0 4.457031 3.628907 8.089844 8.089844 8.089844h107.316406c4.457031 0 8.089844-3.628906 8.089844-8.089844 0-4.464843-3.628906-8.089843-8.089844-8.089843zm0 0" fill="#690589"/><path d="m315.257812 293.269531c0 6.679688-5.414062 12.089844-12.09375 12.089844-6.675781 0-12.089843-5.410156-12.089843-12.089844 0-6.675781 5.414062-12.089843 12.089843-12.089843 6.679688 0 12.09375 5.414062 12.09375 12.089843zm0 0" fill="#ff4397"/><path d="m303.164062 309.359375c-8.871093 0-16.089843-7.21875-16.089843-16.089844 0-8.871093 7.21875-16.089843 16.089843-16.089843 8.875 0 16.09375 7.21875 16.09375 16.089843 0 8.871094-7.21875 16.089844-16.09375 16.089844zm0-24.179687c-4.457031 0-8.089843 3.628906-8.089843 8.089843 0 4.457031 3.628906 8.089844 8.089843 8.089844 4.464844 0 8.09375-3.628906 8.09375-8.089844 0-4.464843-3.632812-8.089843-8.09375-8.089843zm0 0" fill="#690589"/><path d="m462.863281 377.898438h-107.316406c-6.679687 0-12.089844-5.410157-12.089844-12.089844 0-6.675782 5.410157-12.089844 12.089844-12.089844h107.316406c6.675781 0 12.089844 5.414062 12.089844 12.089844 0 6.679687-5.414063 12.089844-12.089844 12.089844zm0 0" fill="#7bac51"/><path d="m490 407.230469h-218.214844c-5.382812 0-9.757812-4.375-9.757812-9.753907v-61.027343c0-5.378907 4.375-9.753907 9.757812-9.753907h218.214844c7.71875 0 14 6.277344 14 14v52.539063c0 7.71875-6.28125 13.996094-14 13.996094zm-218.214844-72.539063c-.972656 0-1.757812.789063-1.757812 1.757813v61.023437c0 .96875.785156 1.757813 1.757812 1.757813h218.214844c3.308594 0 6-2.691407 6-6v-52.539063c0-3.308594-2.691406-6-6-6zm0 0" fill="#690589"/><path d="m462.863281 381.898438h-107.316406c-8.871094 0-16.089844-7.214844-16.089844-16.089844 0-8.871094 7.21875-16.089844 16.089844-16.089844h107.316406c8.871094 0 16.089844 7.21875 16.089844 16.089844 0 8.875-7.21875 16.089844-16.089844 16.089844zm-107.316406-24.179688c-4.460937 0-8.089844 3.628906-8.089844 8.089844 0 4.464844 3.628907 8.089844 8.089844 8.089844h107.316406c4.457031 0 8.089844-3.625 8.089844-8.089844 0-4.460938-3.628906-8.089844-8.089844-8.089844zm0 0" fill="#690589"/><path d="m315.257812 365.808594c0 6.679687-5.414062 12.089844-12.09375 12.089844-6.675781 0-12.089843-5.410157-12.089843-12.089844 0-6.675782 5.414062-12.089844 12.089843-12.089844 6.679688 0 12.09375 5.414062 12.09375 12.089844zm0 0" fill="#ff4397"/><path d="m303.164062 381.898438c-8.871093 0-16.089843-7.214844-16.089843-16.089844 0-8.871094 7.21875-16.089844 16.089843-16.089844 8.875 0 16.09375 7.21875 16.09375 16.089844 0 8.875-7.21875 16.089844-16.09375 16.089844zm0-24.179688c-4.457031 0-8.089843 3.628906-8.089843 8.089844 0 4.464844 3.628906 8.089844 8.089843 8.089844 4.464844 0 8.09375-3.625 8.09375-8.089844 0-4.460938-3.632812-8.089844-8.09375-8.089844zm0 0" fill="#690589"/><path d="m462.863281 450.441406h-107.316406c-6.679687 0-12.089844-5.414062-12.089844-12.089844 0-6.679687 5.410157-12.089843 12.089844-12.089843h107.316406c6.675781 0 12.089844 5.410156 12.089844 12.089843 0 6.675782-5.414063 12.089844-12.089844 12.089844zm0 0" fill="#7bac51"/><path d="m490 479.773438h-218.214844c-5.382812 0-9.757812-4.378907-9.757812-9.757813v-61.027344c0-5.378906 4.375-9.753906 9.757812-9.753906h218.214844c7.71875 0 14 6.28125 14 14v52.539063c0 7.71875-6.28125 14-14 14zm-218.214844-72.542969c-.972656 0-1.757812.789062-1.757812 1.757812v61.027344c0 .964844.785156 1.753906 1.757812 1.753906h218.214844c3.308594 0 6-2.691406 6-6v-52.539062c0-3.308594-2.691406-6-6-6zm0 0" fill="#690589"/><path d="m462.863281 454.441406h-107.316406c-8.871094 0-16.089844-7.21875-16.089844-16.089844 0-8.875 7.21875-16.089843 16.089844-16.089843h107.316406c8.871094 0 16.089844 7.214843 16.089844 16.089843 0 8.871094-7.21875 16.089844-16.089844 16.089844zm-107.316406-24.179687c-4.460937 0-8.089844 3.628906-8.089844 8.089843 0 4.457032 3.628907 8.089844 8.089844 8.089844h107.316406c4.457031 0 8.089844-3.628906 8.089844-8.089844 0-4.464843-3.628906-8.089843-8.089844-8.089843zm0 0" fill="#690589"/><path d="m315.257812 438.351562c0 6.675782-5.414062 12.089844-12.09375 12.089844-6.675781 0-12.089843-5.414062-12.089843-12.089844 0-6.679687 5.414062-12.089843 12.089843-12.089843 6.679688 0 12.09375 5.414062 12.09375 12.089843zm0 0" fill="#ff4397"/><path d="m303.164062 454.441406c-8.871093 0-16.089843-7.21875-16.089843-16.089844 0-8.875 7.21875-16.089843 16.089843-16.089843 8.875 0 16.09375 7.214843 16.09375 16.089843 0 8.871094-7.21875 16.089844-16.09375 16.089844zm0-24.179687c-4.457031 0-8.089843 3.628906-8.089843 8.089843 0 4.457032 3.628906 8.089844 8.089843 8.089844 4.464844 0 8.09375-3.628906 8.09375-8.089844 0-4.464843-3.632812-8.089843-8.09375-8.089843zm0 0" fill="#690589"/><path d="m373.015625 394.535156h-242.027344c-5.523437 0-10-4.480468-10-10v-61.238281c0-5.519531 4.476563-10 10-10h242.023438c5.523437 0 10 4.480469 10 10v61.238281c.003906 5.523438-4.476563 10-9.996094 10zm0 0" fill="#f4efed"/><path d="m341.421875 366.164062h-120.183594c-7.476562 0-13.539062-6.058593-13.539062-13.539062 0-7.476562 6.0625-13.539062 13.539062-13.539062h120.183594c7.476563 0 13.539063 6.0625 13.539063 13.539062 0 7.480469-6.0625 13.539062-13.539063 13.539062zm0 0" fill="#7bac51"/><path d="m341.421875 370.164062h-120.183594c-9.671875 0-17.539062-7.867187-17.539062-17.539062 0-9.667969 7.867187-17.539062 17.539062-17.539062h120.183594c9.671875 0 17.539063 7.867187 17.539063 17.539062s-7.867188 17.539062-17.539063 17.539062zm-120.179687-27.074218c-5.261719 0-9.539063 4.277344-9.539063 9.539062 0 5.257813 4.277344 9.539063 9.539063 9.539063h120.183593c5.257813 0 9.539063-4.28125 9.539063-9.539063 0-5.261718-4.28125-9.539062-9.539063-9.539062zm0 0" fill="#690589"/><path d="m176.121094 352.625c0 7.480469-6.0625 13.539062-13.542969 13.539062-7.476563 0-13.539063-6.058593-13.539063-13.539062 0-7.476562 6.0625-13.539062 13.539063-13.539062 7.480469 0 13.542969 6.0625 13.542969 13.539062zm0 0" fill="#ff4397"/><path d="m162.578125 370.164062c-9.667969 0-17.539063-7.867187-17.539063-17.539062 0-9.667969 7.867188-17.539062 17.539063-17.539062 9.675781 0 17.542969 7.867187 17.542969 17.539062s-7.871094 17.539062-17.542969 17.539062zm0-27.074218c-5.257813 0-9.539063 4.277344-9.539063 9.539062 0 5.257813 4.28125 9.539063 9.539063 9.539063 5.261719 0 9.542969-4.28125 9.542969-9.539063 0-5.261718-4.28125-9.539062-9.542969-9.539062zm0 0" fill="#690589"/><path d="m373.015625 475.773438h-242.027344c-5.523437 0-10-4.480469-10-10v-61.238282c0-5.523437 4.476563-10 10-10h242.023438c5.523437 0 10 4.476563 10 10v61.238282c.003906 5.519531-4.476563 10-9.996094 10zm0 0" fill="#f4efed"/><path d="m341.421875 447.402344h-120.183594c-7.476562 0-13.539062-6.058594-13.539062-13.539063 0-7.476562 6.0625-13.539062 13.539062-13.539062h120.183594c7.476563 0 13.539063 6.0625 13.539063 13.539062 0 7.480469-6.0625 13.539063-13.539063 13.539063zm0 0" fill="#7bac51"/><path d="m341.421875 451.402344h-120.183594c-9.671875 0-17.539062-7.867188-17.539062-17.539063 0-9.667969 7.867187-17.539062 17.539062-17.539062h120.183594c9.671875 0 17.539063 7.867187 17.539063 17.539062s-7.867188 17.539063-17.539063 17.539063zm-120.179687-27.078125c-5.261719 0-9.539063 4.28125-9.539063 9.539062 0 5.261719 4.277344 9.539063 9.539063 9.539063h120.183593c5.257813 0 9.539063-4.277344 9.539063-9.539063 0-5.257812-4.28125-9.539062-9.539063-9.539062zm0 0" fill="#690589"/><path d="m176.121094 433.863281c0 7.480469-6.0625 13.539063-13.542969 13.539063-7.476563 0-13.539063-6.058594-13.539063-13.539063 0-7.476562 6.0625-13.539062 13.539063-13.539062 7.480469 0 13.542969 6.0625 13.542969 13.539062zm0 0" fill="#ff4397"/><path d="m162.578125 451.402344c-9.667969 0-17.539063-7.867188-17.539063-17.539063 0-9.667969 7.867188-17.539062 17.539063-17.539062 9.675781 0 17.542969 7.867187 17.542969 17.539062s-7.871094 17.539063-17.542969 17.539063zm0-27.078125c-5.257813 0-9.539063 4.28125-9.539063 9.539062 0 5.261719 4.28125 9.539063 9.539063 9.539063 5.261719 0 9.542969-4.277344 9.542969-9.539063 0-5.257812-4.28125-9.539062-9.542969-9.539062zm0 0" fill="#690589"/><path d="m373.015625 313.296875h-242.027344c-5.523437 0-10-4.476563-10-10v-61.238281c0-5.519532 4.476563-10 10-10h242.023438c5.523437 0 10 4.480468 10 10v61.238281c.003906 5.523437-4.476563 10-9.996094 10zm0 0" fill="#f4efed"/><path d="m373.015625 232.058594h-20c5.519531 0 10 4.480468 10 10v61.238281c0 5.523437-4.480469 10-10 10h20c5.519531 0 10-4.476563 10-10v-61.238281c0-5.519532-4.480469-10-10-10zm0 0" fill="#d6d1cf"/><path d="m373.015625 313.296875h-20c5.519531 0 10 4.480469 10 10v61.238281c0 5.523438-4.480469 10-10 10h20c5.519531 0 10-4.476562 10-10v-61.238281c0-5.523437-4.480469-10-10-10zm0 0" fill="#d6d1cf"/><path d="m373.015625 394.535156h-20c5.519531 0 10 4.476563 10 10v61.238282c0 5.523437-4.480469 10-10 10h20c5.519531 0 10-4.476563 10-10v-61.238282c0-5.523437-4.480469-10-10-10zm0 0" fill="#d6d1cf"/><path d="m130.988281 475.773438h20c-5.523437 0-10-4.476563-10-10v-61.238282c0-5.523437 4.476563-10 10-10h-20c-5.523437 0-10 4.476563-10 10v61.238282c0 5.519531 4.476563 10 10 10zm0 0" fill="#fff"/><path d="m130.988281 394.535156h20c-5.523437 0-10-4.476562-10-10v-61.238281c0-5.523437 4.476563-10 10-10h-20c-5.523437 0-10 4.476563-10 10v61.238281c0 5.523438 4.476563 10 10 10zm0 0" fill="#fff"/><path d="m130.988281 313.296875h20c-5.523437 0-10-4.476563-10-10v-61.238281c0-5.519532 4.476563-10 10-10h-20c-5.523437 0-10 4.480468-10 10v61.238281c0 5.523437 4.476563 10 10 10zm0 0" fill="#fff"/><path d="m341.421875 284.929688h-120.183594c-7.476562 0-13.539062-6.0625-13.539062-13.542969 0-7.476563 6.0625-13.539063 13.539062-13.539063h120.183594c7.476563 0 13.539063 6.0625 13.539063 13.539063 0 7.480469-6.0625 13.542969-13.539063 13.542969zm0 0" fill="#7bac51"/><path d="m373.015625 317.296875h-242.027344c-7.71875 0-14-6.277344-14-14v-61.238281c0-7.71875 6.28125-14 14-14h242.027344c7.71875 0 14 6.28125 14 14v61.238281c0 7.71875-6.28125 14-14 14zm-242.027344-81.238281c-3.304687 0-6 2.695312-6 6v61.238281c0 3.308594 2.695313 6 6 6h242.027344c3.304687 0 6-2.691406 6-6v-61.238281c0-3.304688-2.695313-6-6-6zm0 0" fill="#690589"/><path d="m341.421875 288.929688h-120.183594c-9.671875 0-17.539062-7.871094-17.539062-17.542969 0-9.667969 7.867187-17.539063 17.539062-17.539063h120.183594c9.671875 0 17.539063 7.867188 17.539063 17.539063s-7.867188 17.542969-17.539063 17.542969zm-120.179687-27.078126c-5.261719 0-9.539063 4.277344-9.539063 9.539063 0 5.257813 4.277344 9.539063 9.539063 9.539063h120.183593c5.257813 0 9.539063-4.28125 9.539063-9.539063 0-5.261719-4.28125-9.539063-9.539063-9.539063zm0 0" fill="#690589"/><path d="m176.121094 271.390625c0 7.476563-6.0625 13.539063-13.542969 13.539063-7.476563 0-13.539063-6.0625-13.539063-13.539063 0-7.480469 6.0625-13.539063 13.539063-13.539063 7.480469 0 13.542969 6.058594 13.542969 13.539063zm0 0" fill="#ff4397"/><path d="m162.578125 288.929688c-9.667969 0-17.539063-7.871094-17.539063-17.542969 0-9.667969 7.867188-17.539063 17.539063-17.539063 9.675781 0 17.542969 7.867188 17.542969 17.539063s-7.871094 17.542969-17.542969 17.542969zm0-27.078126c-5.257813 0-9.539063 4.277344-9.539063 9.539063 0 5.257813 4.28125 9.539063 9.539063 9.539063 5.261719 0 9.542969-4.28125 9.542969-9.539063 0-5.261719-4.28125-9.539063-9.542969-9.539063zm0 0" fill="#690589"/><path d="m373.015625 398.535156h-242.027344c-7.71875 0-14-6.28125-14-14v-61.238281c0-7.722656 6.28125-14 14-14h242.027344c7.71875 0 14 6.277344 14 14v61.238281c0 7.71875-6.28125 14-14 14zm-242.027344-81.238281c-3.304687 0-6 2.691406-6 6v61.238281c0 3.308594 2.695313 6 6 6h242.027344c3.304687 0 6-2.691406 6-6v-61.238281c0-3.308594-2.695313-6-6-6zm0 0" fill="#690589"/><path d="m373.015625 479.773438h-242.027344c-7.71875 0-14-6.28125-14-14v-61.238282c0-7.722656 6.28125-14 14-14h242.027344c7.71875 0 14 6.277344 14 14v61.238282c0 7.71875-6.28125 14-14 14zm-242.027344-81.238282c-3.304687 0-6 2.691406-6 6v61.238282c0 3.304687 2.695313 6 6 6h242.027344c3.304687 0 6-2.695313 6-6v-61.238282c0-3.308594-2.695313-6-6-6zm0 0" fill="#690589"/></svg>